STARTFONT 2.1
FONT -Bitstream-Terminal-Bold-R-Normal--25-180-100-100-C-150-ISO8859-15
SIZE 18 100 100
FONTBOUNDINGBOX 15 25 0 -5

STARTPROPERTIES 27
FOUNDRY "Bitstream"
FAMILY_NAME "Terminal"
WEIGHT_NAME "Bold"
SLANT "R"
SETWIDTH_NAME "Normal"
ADD_STYLE_NAME ""
PIXEL_SIZE 25
POINT_SIZE 180
RESOLUTION_X 100
RESOLUTION_Y 100
SPACING "C"
AVERAGE_WIDTH 150
CHARSET_REGISTRY "ISO8859"
CHARSET_ENCODING "15"
CAP_HEIGHT 15
X_HEIGHT 12
COPYRIGHT "Copyright (c) 1991 Digital Equipment Corporation. All Rights Reserved."
_DEC_PRODUCTINFO "DECterm Fonts V2.2, 11-Nov-1991"
AVG_CAPITAL_WIDTH 150
AVG_LOWERCASE_WIDTH 150
FIGURE_WIDTH 15
FULL_NAME "Terminal Bold"
WEIGHT 10
QUAD_WIDTH 15
DEFAULT_CHAR 159
FONT_DESCENT 5
FONT_ASCENT 20
ENDPROPERTIES

CHARS 195

STARTCHAR space
ENCODING 32
SWIDTH 565 0
DWIDTH 15 0
BBX 15 25 0 -5
BITMAP
0000
0000
0000
0000
0000
0000
0000
0000
0000
0000
0000
0000
0000
0000
0000
0000
0000
0000
0000
0000
0000
0000
0000
0000
0000
ENDCHAR

STARTCHAR exclam
ENCODING 33
SWIDTH 565 0
DWIDTH 15 0
BBX 15 25 0 -5
BITMAP
0000
0000
0000
0000
0000
0780
0780
0780
0780
0780
0780
0780
0780
0780
0000
0300
0FC0
0FC0
0FC0
0300
0000
0000
0000
0000
0000
ENDCHAR

STARTCHAR quotedbl
ENCODING 34
SWIDTH 565 0
DWIDTH 15 0
BBX 15 25 0 -5
BITMAP
0000
0000
0000
1CE0
1CE0
1CE0
1CE0
1CE0
1CE0
1CE0
0000
0000
0000
0000
0000
0000
0000
0000
0000
0000
0000
0000
0000
0000
0000
ENDCHAR

STARTCHAR numbersign
ENCODING 35
SWIDTH 565 0
DWIDTH 15 0
BBX 15 25 0 -5
BITMAP
0000
0000
0000
0000
0000
1CE0
1CE0
1CE0
1CE0
1CE0
FFFC
FFFC
FFFC
1CE0
1CE0
1CE0
FFFC
FFFC
FFFC
1CE0
1CE0
1CE0
1CE0
1CE0
0000
ENDCHAR

STARTCHAR dollar
ENCODING 36
SWIDTH 565 0
DWIDTH 15 0
BBX 15 25 0 -5
BITMAP
0000
0000
0380
0380
0380
0FB8
3FF8
3FF8
7878
7838
7E00
7F80
1FE0
07F0
01F8
7078
7878
7FF8
7FF0
77C0
0700
0700
0700
0700
0000
ENDCHAR

STARTCHAR percent
ENCODING 37
SWIDTH 565 0
DWIDTH 15 0
BBX 15 25 0 -5
BITMAP
0000
0000
0000
0000
0000
3E00
7F00
7300
7318
7330
7F60
3EC0
0180
0600
0DF0
1BF8
3398
6398
0398
03F8
01F0
0000
0000
0000
0000
ENDCHAR

STARTCHAR ampersand
ENCODING 38
SWIDTH 565 0
DWIDTH 15 0
BBX 15 25 0 -5
BITMAP
0000
0000
0000
0000
0000
0FB0
1FF0
1E70
1E30
1E00
0F38
0F38
1FB8
7BF0
79F0
79F0
78F0
7FF8
7FF8
1FB8
0000
0000
0000
0000
0000
ENDCHAR

STARTCHAR quoteright
ENCODING 39
SWIDTH 565 0
DWIDTH 15 0
BBX 15 25 0 -5
BITMAP
0000
0000
03E0
03E0
07C0
0780
0F00
0E00
0C00
0000
0000
0000
0000
0000
0000
0000
0000
0000
0000
0000
0000
0000
0000
0000
0000
ENDCHAR

STARTCHAR parenleft
ENCODING 40
SWIDTH 565 0
DWIDTH 15 0
BBX 15 25 0 -5
BITMAP
0000
0000
0070
00E0
01E0
03C0
0780
0780
0F00
0F00
0F00
0F00
0F00
0F00
0F00
0F00
0F00
0780
0780
03C0
01E0
00E0
0070
0000
0000
ENDCHAR

STARTCHAR parenright
ENCODING 41
SWIDTH 565 0
DWIDTH 15 0
BBX 15 25 0 -5
BITMAP
0000
0000
3800
1C00
1E00
0E00
0F00
0780
0780
03C0
03C0
03C0
03C0
03C0
03C0
03C0
03C0
0780
0780
0700
0F00
0E00
1C00
0000
0000
ENDCHAR

STARTCHAR asterisk
ENCODING 42
SWIDTH 565 0
DWIDTH 15 0
BBX 15 25 0 -5
BITMAP
0000
0000
0000
0000
0000
0000
0000
0700
0700
0700
EFB8
FFF8
7FF0
1FC0
1FC0
3DE0
78F0
7070
0000
0000
0000
0000
0000
0000
0000
ENDCHAR

STARTCHAR plus
ENCODING 43
SWIDTH 565 0
DWIDTH 15 0
BBX 15 25 0 -5
BITMAP
0000
0000
0000
0000
0000
0000
0780
0780
0780
0780
0780
7FF8
7FF8
7FF8
0780
0780
0780
0780
0780
0000
0000
0000
0000
0000
0000
ENDCHAR

STARTCHAR comma
ENCODING 44
SWIDTH 565 0
DWIDTH 15 0
BBX 15 25 0 -5
BITMAP
0000
0000
0000
0000
0000
0000
0000
0000
0000
0000
0000
0000
0000
0000
0000
0000
07C0
07C0
0780
0780
0F00
0F00
0F00
0E00
0000
ENDCHAR

STARTCHAR minus
ENCODING 45
SWIDTH 565 0
DWIDTH 15 0
BBX 15 25 0 -5
BITMAP
0000
0000
0000
0000
0000
0000
0000
0000
0000
0000
0000
3FF0
3FF0
3FF0
0000
0000
0000
0000
0000
0000
0000
0000
0000
0000
0000
ENDCHAR

STARTCHAR period
ENCODING 46
SWIDTH 565 0
DWIDTH 15 0
BBX 15 25 0 -5
BITMAP
0000
0000
0000
0000
0000
0000
0000
0000
0000
0000
0000
0000
0000
0000
0000
0300
0FC0
0FC0
0FC0
0300
0000
0000
0000
0000
0000
ENDCHAR

STARTCHAR slash
ENCODING 47
SWIDTH 565 0
DWIDTH 15 0
BBX 15 25 0 -5
BITMAP
0000
0000
0000
0070
0070
00F0
00E0
00E0
01E0
01C0
03C0
0380
0380
0700
0700
0F00
0E00
1E00
1C00
3C00
3800
7800
7000
0000
0000
ENDCHAR

STARTCHAR zero
ENCODING 48
SWIDTH 565 0
DWIDTH 15 0
BBX 15 25 0 -5
BITMAP
0000
0000
0000
0000
0000
0380
0FE0
1EF0
1C70
3C78
3C78
3C78
3C78
3C78
3C78
3C78
1C70
1EF0
0FE0
0380
0000
0000
0000
0000
0000
ENDCHAR

STARTCHAR one
ENCODING 49
SWIDTH 565 0
DWIDTH 15 0
BBX 15 25 0 -5
BITMAP
0000
0000
0000
0000
0000
03C0
0FC0
3FC0
3FC0
33C0
03C0
03C0
03C0
03C0
03C0
03C0
03C0
1FF8
1FF8
1FF8
0000
0000
0000
0000
0000
ENDCHAR

STARTCHAR two
ENCODING 50
SWIDTH 565 0
DWIDTH 15 0
BBX 15 25 0 -5
BITMAP
0000
0000
0000
0000
0000
0FE0
3FF0
3FF8
38F8
3878
00F8
01F0
03E0
07C0
0F00
1E38
3C38
3FF8
3FF8
3FF8
0000
0000
0000
0000
0000
ENDCHAR

STARTCHAR three
ENCODING 51
SWIDTH 565 0
DWIDTH 15 0
BBX 15 25 0 -5
BITMAP
0000
0000
0000
0000
0000
0FC0
3FE0
3FF0
38F0
00F0
01F0
07E0
07F0
07F8
0078
0078
38F8
3FF8
3FF0
0FC0
0000
0000
0000
0000
0000
ENDCHAR

STARTCHAR four
ENCODING 52
SWIDTH 565 0
DWIDTH 15 0
BBX 15 25 0 -5
BITMAP
0000
0000
0000
0000
0000
00F0
01F0
03F0
07F0
0EF0
1CF0
3CF0
38F0
7FFC
7FFC
7FFC
00F0
00F0
00F0
00F0
0000
0000
0000
0000
0000
ENDCHAR

STARTCHAR five
ENCODING 53
SWIDTH 565 0
DWIDTH 15 0
BBX 15 25 0 -5
BITMAP
0000
0000
0000
0000
0000
3FF0
3FF0
3FF0
3C00
3C00
3FE0
3FF0
3FF8
3878
0038
0038
3878
3FF8
3FF0
1FE0
0000
0000
0000
0000
0000
ENDCHAR

STARTCHAR six
ENCODING 54
SWIDTH 565 0
DWIDTH 15 0
BBX 15 25 0 -5
BITMAP
0000
0000
0000
0000
0000
01F0
07F0
0FF0
1F00
1C00
3DE0
3FF0
3FF8
3E78
3C38
3C38
1E78
1FF0
0FF0
07C0
0000
0000
0000
0000
0000
ENDCHAR

STARTCHAR seven
ENCODING 55
SWIDTH 565 0
DWIDTH 15 0
BBX 15 25 0 -5
BITMAP
0000
0000
0000
0000
0000
3FF8
3FF8
3FF8
3878
3870
0070
00F0
00F0
00E0
01E0
01E0
03C0
03C0
0780
0780
0000
0000
0000
0000
0000
ENDCHAR

STARTCHAR eight
ENCODING 56
SWIDTH 565 0
DWIDTH 15 0
BBX 15 25 0 -5
BITMAP
0000
0000
0000
0000
0000
07C0
1FF0
1EF0
3C78
3C78
1C70
0FE0
1FF0
3C78
3C78
3C78
3C78
3EF8
1FF0
0FE0
0000
0000
0000
0000
0000
ENDCHAR

STARTCHAR nine
ENCODING 57
SWIDTH 565 0
DWIDTH 15 0
BBX 15 25 0 -5
BITMAP
0000
0000
0000
0000
0000
07C0
1FE0
1FF0
3CF0
3878
3878
3CF8
3FF8
0FF8
0F78
0070
01F0
1FE0
1FC0
1F00
0000
0000
0000
0000
0000
ENDCHAR

STARTCHAR colon
ENCODING 58
SWIDTH 565 0
DWIDTH 15 0
BBX 15 25 0 -5
BITMAP
0000
0000
0000
0000
0000
0000
0000
0000
0300
0FC0
0FC0
0FC0
0300
0000
0000
0300
0FC0
0FC0
0FC0
0300
0000
0000
0000
0000
0000
ENDCHAR

STARTCHAR semicolon
ENCODING 59
SWIDTH 565 0
DWIDTH 15 0
BBX 15 25 0 -5
BITMAP
0000
0000
0000
0000
0000
0000
0000
0000
0300
0FC0
0FC0
0FC0
0300
0000
0000
0000
0F80
0F80
0F00
0F00
1E00
1E00
1E00
1C00
0000
ENDCHAR

STARTCHAR less
ENCODING 60
SWIDTH 565 0
DWIDTH 15 0
BBX 15 25 0 -5
BITMAP
0000
0000
0000
0000
0000
0000
0030
00F0
01F0
07C0
1F00
7C00
7800
7C00
1F00
0FC0
03F0
00F0
0030
0000
0000
0000
0000
0000
0000
ENDCHAR

STARTCHAR equal
ENCODING 61
SWIDTH 565 0
DWIDTH 15 0
BBX 15 25 0 -5
BITMAP
0000
0000
0000
0000
0000
0000
0000
0000
7FF0
7FF0
7FF0
0000
0000
0000
7FF0
7FF0
7FF0
0000
0000
0000
0000
0000
0000
0000
0000
ENDCHAR

STARTCHAR greater
ENCODING 62
SWIDTH 565 0
DWIDTH 15 0
BBX 15 25 0 -5
BITMAP
0000
0000
0000
0000
0000
0000
3000
3C00
3F00
0FC0
03E0
00F8
0078
00F8
03E0
0F80
3E00
3C00
3000
0000
0000
0000
0000
0000
0000
ENDCHAR

STARTCHAR question
ENCODING 63
SWIDTH 565 0
DWIDTH 15 0
BBX 15 25 0 -5
BITMAP
0000
0000
0000
0000
0000
1FC0
3FF0
3FF0
3CF0
00F0
03F0
07E0
0F80
0F00
0000
0600
1F80
1F80
1F80
0600
0000
0000
0000
0000
0000
ENDCHAR

STARTCHAR at
ENCODING 64
SWIDTH 565 0
DWIDTH 15 0
BBX 15 25 0 -5
BITMAP
0000
0000
0000
0000
07C0
1FE0
3870
3030
7038
71F8
73F8
7738
7738
7738
7738
77FC
71DC
7000
7800
3C18
1FF8
0FF0
03C0
0000
0000
ENDCHAR

STARTCHAR A
ENCODING 65
SWIDTH 565 0
DWIDTH 15 0
BBX 15 25 0 -5
BITMAP
0000
0000
0000
0000
0000
0FE0
0FE0
0FE0
0FE0
1FF0
1CF0
1CF0
1CF0
3FF8
3FF8
3FF8
7078
FCFC
FCFC
FCFC
0000
0000
0000
0000
0000
ENDCHAR

STARTCHAR B
ENCODING 66
SWIDTH 565 0
DWIDTH 15 0
BBX 15 25 0 -5
BITMAP
0000
0000
0000
0000
0000
7FE0
7FF0
7FF8
3C78
3C78
3C70
3FE0
3FF0
3C78
3C78
3C78
3C78
7FF8
7FF0
7FE0
0000
0000
0000
0000
0000
ENDCHAR

STARTCHAR C
ENCODING 67
SWIDTH 565 0
DWIDTH 15 0
BBX 15 25 0 -5
BITMAP
0000
0000
0000
0000
0000
0798
1FF8
1FF8
3E38
3C38
3C00
3C00
3C00
3C00
3C00
3C00
3E38
1FF8
1FF8
07E0
0000
0000
0000
0000
0000
ENDCHAR

STARTCHAR D
ENCODING 68
SWIDTH 565 0
DWIDTH 15 0
BBX 15 25 0 -5
BITMAP
0000
0000
0000
0000
0000
7FC0
7FF0
7FF0
3CF8
3C78
3C78
3C78
3C78
3C78
3C78
3C78
3CF8
7FF0
7FF0
7FC0
0000
0000
0000
0000
0000
ENDCHAR

STARTCHAR E
ENCODING 69
SWIDTH 565 0
DWIDTH 15 0
BBX 15 25 0 -5
BITMAP
0000
0000
0000
0000
0000
3FF8
3FF8
3FF8
1E38
1E00
1E00
1FE0
1FE0
1FE0
1E00
1E00
1E38
3FF8
3FF8
3FF8
0000
0000
0000
0000
0000
ENDCHAR

STARTCHAR F
ENCODING 70
SWIDTH 565 0
DWIDTH 15 0
BBX 15 25 0 -5
BITMAP
0000
0000
0000
0000
0000
7FF8
7FF8
7FF8
1E38
1E00
1E00
1FE0
1FE0
1FE0
1E00
1E00
1E00
7F80
7F80
7F80
0000
0000
0000
0000
0000
ENDCHAR

STARTCHAR G
ENCODING 71
SWIDTH 565 0
DWIDTH 15 0
BBX 15 25 0 -5
BITMAP
0000
0000
0000
0000
0000
0F98
3FF8
3FF8
7C38
7838
7800
7800
79F8
79F8
79F8
7878
7C78
3FF0
3FF0
0FC0
0000
0000
0000
0000
0000
ENDCHAR

STARTCHAR H
ENCODING 72
SWIDTH 565 0
DWIDTH 15 0
BBX 15 25 0 -5
BITMAP
0000
0000
0000
0000
0000
7CF8
7CF8
7CF8
3CF0
3CF0
3FF0
3FF0
3FF0
3FF0
3CF0
3CF0
3CF0
7CF8
7CF8
7CF8
0000
0000
0000
0000
0000
ENDCHAR

STARTCHAR I
ENCODING 73
SWIDTH 565 0
DWIDTH 15 0
BBX 15 25 0 -5
BITMAP
0000
0000
0000
0000
0000
3FF0
3FF0
3FF0
0780
0780
0780
0780
0780
0780
0780
0780
0780
3FF0
3FF0
3FF0
0000
0000
0000
0000
0000
ENDCHAR

STARTCHAR J
ENCODING 74
SWIDTH 565 0
DWIDTH 15 0
BBX 15 25 0 -5
BITMAP
0000
0000
0000
0000
0000
07F8
07F8
07F8
00F0
00F0
00F0
00F0
00F0
70F0
70F0
70F0
78F0
7FE0
3FE0
0F80
0000
0000
0000
0000
0000
ENDCHAR

STARTCHAR K
ENCODING 75
SWIDTH 565 0
DWIDTH 15 0
BBX 15 25 0 -5
BITMAP
0000
0000
0000
0000
0000
7CF8
7CF8
7CF8
3DE0
3DC0
3F80
3F80
3FC0
3FC0
3DE0
3DE0
3CF0
7CF8
7CF8
7CF8
0000
0000
0000
0000
0000
ENDCHAR

STARTCHAR L
ENCODING 76
SWIDTH 565 0
DWIDTH 15 0
BBX 15 25 0 -5
BITMAP
0000
0000
0000
0000
0000
7F80
7F80
7F80
1E00
1E00
1E00
1E00
1E00
1E38
1E38
1E38
1E38
7FF8
7FF8
7FF8
0000
0000
0000
0000
0000
ENDCHAR

STARTCHAR M
ENCODING 77
SWIDTH 565 0
DWIDTH 15 0
BBX 15 25 0 -5
BITMAP
0000
0000
0000
0000
0000
783C
783C
7C7C
3C78
3EF8
3FF8
3FF8
3FF8
3BB8
3BB8
3938
3938
783C
783C
783C
0000
0000
0000
0000
0000
ENDCHAR

STARTCHAR N
ENCODING 78
SWIDTH 565 0
DWIDTH 15 0
BBX 15 25 0 -5
BITMAP
0000
0000
0000
0000
0000
3C78
3C78
3C78
1E70
1E70
1F70
1FF0
1FF0
1FF0
1DF0
1DF0
1CF0
3CF0
3C70
3C70
0000
0000
0000
0000
0000
ENDCHAR

STARTCHAR O
ENCODING 79
SWIDTH 565 0
DWIDTH 15 0
BBX 15 25 0 -5
BITMAP
0000
0000
0000
0000
0000
0FC0
3FF0
3FF0
7CF8
7878
7878
7878
7878
7878
7878
7878
7CF8
3FF0
3FF0
0FC0
0000
0000
0000
0000
0000
ENDCHAR

STARTCHAR P
ENCODING 80
SWIDTH 565 0
DWIDTH 15 0
BBX 15 25 0 -5
BITMAP
0000
0000
0000
0000
0000
7FE0
7FF0
7FF8
3C78
3C78
3C78
3C78
3FF8
3FF0
3FE0
3C00
3C00
7F00
7F00
7F00
0000
0000
0000
0000
0000
ENDCHAR

STARTCHAR Q
ENCODING 81
SWIDTH 565 0
DWIDTH 15 0
BBX 15 25 0 -5
BITMAP
0000
0000
0000
0000
0000
0FC0
3FF0
3FF0
7CF8
7878
7878
7878
7878
7878
7878
7878
7CF8
3FF0
3FF0
0FC0
0E00
1FF0
1FF0
1DF0
0000
ENDCHAR

STARTCHAR R
ENCODING 82
SWIDTH 565 0
DWIDTH 15 0
BBX 15 25 0 -5
BITMAP
0000
0000
0000
0000
0000
7FE0
7FF0
7FF8
3C78
3C78
3C78
3FF0
3FE0
3FE0
3CF0
3CF0
3C78
7C7C
7C3C
7C3C
0000
0000
0000
0000
0000
ENDCHAR

STARTCHAR S
ENCODING 83
SWIDTH 565 0
DWIDTH 15 0
BBX 15 25 0 -5
BITMAP
0000
0000
0000
0000
0000
0F30
1FF0
3FF0
3CF0
3C30
3E00
3F80
1FE0
07F0
01F0
30F0
38F0
3FF0
3FE0
37C0
0000
0000
0000
0000
0000
ENDCHAR

STARTCHAR T
ENCODING 84
SWIDTH 565 0
DWIDTH 15 0
BBX 15 25 0 -5
BITMAP
0000
0000
0000
0000
0000
FFFC
FFFC
FFFC
E79C
E79C
E79C
E79C
0780
0780
0780
0780
0780
1FE0
1FE0
1FE0
0000
0000
0000
0000
0000
ENDCHAR

STARTCHAR U
ENCODING 85
SWIDTH 565 0
DWIDTH 15 0
BBX 15 25 0 -5
BITMAP
0000
0000
0000
0000
0000
7CF8
7CF8
7CF8
3CF0
3CF0
3CF0
3CF0
3CF0
3CF0
3CF0
3CF0
3CF0
3FF0
1FE0
0FC0
0000
0000
0000
0000
0000
ENDCHAR

STARTCHAR V
ENCODING 86
SWIDTH 565 0
DWIDTH 15 0
BBX 15 25 0 -5
BITMAP
0000
0000
0000
0000
0000
7CF8
7CF8
7CF8
3CF0
3CF0
3CF0
3CF0
1CE0
1CE0
1CE0
1FE0
0FC0
0FC0
0780
0780
0000
0000
0000
0000
0000
ENDCHAR

STARTCHAR W
ENCODING 87
SWIDTH 565 0
DWIDTH 15 0
BBX 15 25 0 -5
BITMAP
0000
0000
0000
0000
0000
FCFC
FCFC
FCFC
7038
7038
7338
7338
7338
77B8
7FF8
3FF0
3FF0
3CF0
1CE0
1CE0
0000
0000
0000
0000
0000
ENDCHAR

STARTCHAR X
ENCODING 88
SWIDTH 565 0
DWIDTH 15 0
BBX 15 25 0 -5
BITMAP
0000
0000
0000
0000
0000
7CF8
7CF8
7CF8
3870
3CF0
1FE0
0FC0
0780
07C0
0FC0
1FE0
3CF0
7878
7878
7878
0000
0000
0000
0000
0000
ENDCHAR

STARTCHAR Y
ENCODING 89
SWIDTH 565 0
DWIDTH 15 0
BBX 15 25 0 -5
BITMAP
0000
0000
0000
0000
0000
7C78
7C78
7C78
3C70
1EF0
1EE0
0FE0
0FC0
0780
0780
0780
0780
0FC0
0FC0
0FC0
0000
0000
0000
0000
0000
ENDCHAR

STARTCHAR Z
ENCODING 90
SWIDTH 565 0
DWIDTH 15 0
BBX 15 25 0 -5
BITMAP
0000
0000
0000
0000
0000
3FF0
3FF0
3FF0
31E0
31E0
03C0
03C0
0780
0780
0F00
1F30
1E30
3FF0
3FF0
3FF0
0000
0000
0000
0000
0000
ENDCHAR

STARTCHAR bracketleft
ENCODING 91
SWIDTH 565 0
DWIDTH 15 0
BBX 15 25 0 -5
BITMAP
0000
0000
0FE0
0FE0
0FE0
0F00
0F00
0F00
0F00
0F00
0F00
0F00
0F00
0F00
0F00
0F00
0F00
0F00
0F00
0F00
0F00
0FE0
0FE0
0FE0
0000
ENDCHAR

STARTCHAR backslash
ENCODING 92
SWIDTH 565 0
DWIDTH 15 0
BBX 15 25 0 -5
BITMAP
0000
0000
0000
3800
3800
3C00
1C00
1C00
1E00
0E00
0F00
0F00
0700
0780
0380
03C0
01C0
01E0
01E0
00E0
00F0
0070
0070
0000
0000
ENDCHAR

STARTCHAR bracketright
ENCODING 93
SWIDTH 565 0
DWIDTH 15 0
BBX 15 25 0 -5
BITMAP
0000
0000
1FC0
1FC0
1FC0
03C0
03C0
03C0
03C0
03C0
03C0
03C0
03C0
03C0
03C0
03C0
03C0
03C0
03C0
03C0
03C0
1FC0
1FC0
1FC0
0000
ENDCHAR

STARTCHAR asciicircum
ENCODING 94
SWIDTH 565 0
DWIDTH 15 0
BBX 15 25 0 -5
BITMAP
0000
0000
0000
0000
0000
0000
0000
0000
0000
0300
0780
0FC0
1FE0
3CF0
3870
0000
0000
0000
0000
0000
0000
0000
0000
0000
0000
ENDCHAR

STARTCHAR underscore
ENCODING 95
SWIDTH 565 0
DWIDTH 15 0
BBX 15 25 0 -5
BITMAP
0000
0000
0000
0000
0000
0000
0000
0000
0000
0000
0000
0000
0000
0000
0000
0000
0000
7FFC
7FFC
7FFC
0000
0000
0000
0000
0000
ENDCHAR

STARTCHAR quoteleft
ENCODING 96
SWIDTH 565 0
DWIDTH 15 0
BBX 15 25 0 -5
BITMAP
0000
0000
3F00
1F00
0F80
0780
03C0
01E0
00C0
0000
0000
0000
0000
0000
0000
0000
0000
0000
0000
0000
0000
0000
0000
0000
0000
ENDCHAR

STARTCHAR a
ENCODING 97
SWIDTH 565 0
DWIDTH 15 0
BBX 15 25 0 -5
BITMAP
0000
0000
0000
0000
0000
0000
0000
0000
1FC0
3FE0
38F0
0070
0FF0
3FF0
7FF0
78F0
78F0
7FF8
7FF8
1F78
0000
0000
0000
0000
0000
ENDCHAR

STARTCHAR b
ENCODING 98
SWIDTH 565 0
DWIDTH 15 0
BBX 15 25 0 -5
BITMAP
0000
0000
0000
0000
FC00
FC00
FC00
3C00
3DE0
3FF0
3FF0
3C78
3C78
3C78
3C78
3C78
3CF8
FFF0
FFF0
FDE0
0000
0000
0000
0000
0000
ENDCHAR

STARTCHAR c
ENCODING 99
SWIDTH 565 0
DWIDTH 15 0
BBX 15 25 0 -5
BITMAP
0000
0000
0000
0000
0000
0000
0000
0000
07D8
1FF8
3E78
3C38
7838
7800
7800
7800
3C38
3E78
1FF0
07E0
0000
0000
0000
0000
0000
ENDCHAR

STARTCHAR d
ENCODING 100
SWIDTH 565 0
DWIDTH 15 0
BBX 15 25 0 -5
BITMAP
0000
0000
0000
0000
01F0
01F0
01F0
00F0
0FF0
3FF0
3FF0
78F0
78F0
78F0
78F0
78F0
78F0
3FF8
3FF8
0F78
0000
0000
0000
0000
0000
ENDCHAR

STARTCHAR e
ENCODING 101
SWIDTH 565 0
DWIDTH 15 0
BBX 15 25 0 -5
BITMAP
0000
0000
0000
0000
0000
0000
0000
0000
0F80
3FE0
38E0
78F0
78F0
7FF0
7FE0
7800
7C70
3FF0
3FF0
0FC0
0000
0000
0000
0000
0000
ENDCHAR

STARTCHAR f
ENCODING 102
SWIDTH 565 0
DWIDTH 15 0
BBX 15 25 0 -5
BITMAP
0000
0000
0000
0000
07F0
0FF0
0F00
0F00
7FF0
7FF0
7FF0
0F00
0F00
0F00
0F00
0F00
0F00
7FE0
7FE0
7FE0
0000
0000
0000
0000
0000
ENDCHAR

STARTCHAR g
ENCODING 103
SWIDTH 565 0
DWIDTH 15 0
BBX 15 25 0 -5
BITMAP
0000
0000
0000
0000
0000
0000
0000
0000
0F70
3FF0
3FF0
7CF0
78F0
78F0
78F0
78F0
7CF0
3FF0
3FF0
0FF0
00F0
00F0
01F0
3FE0
3F80
ENDCHAR

STARTCHAR h
ENCODING 104
SWIDTH 565 0
DWIDTH 15 0
BBX 15 25 0 -5
BITMAP
0000
0000
0000
0000
7C00
7C00
7C00
3C00
3DC0
3FE0
3FF0
3CF0
3CF0
3CF0
3CF0
3CF0
3CF0
7CF8
7CF8
7CF8
0000
0000
0000
0000
0000
ENDCHAR

STARTCHAR i
ENCODING 105
SWIDTH 565 0
DWIDTH 15 0
BBX 15 25 0 -5
BITMAP
0000
0000
0780
0780
0780
0780
0000
0000
3F80
3F80
0780
0780
0780
0780
0780
0780
0780
3FF0
3FF0
3FF0
0000
0000
0000
0000
0000
ENDCHAR

STARTCHAR j
ENCODING 106
SWIDTH 565 0
DWIDTH 15 0
BBX 15 25 0 -5
BITMAP
0000
0000
03C0
03C0
03C0
03C0
0000
0000
3FC0
3FC0
03C0
03C0
03C0
03C0
03C0
03C0
03C0
03C0
03C0
03C0
03C0
03C0
07C0
7F80
7E00
ENDCHAR

STARTCHAR k
ENCODING 107
SWIDTH 565 0
DWIDTH 15 0
BBX 15 25 0 -5
BITMAP
0000
0000
0000
0000
7C00
7C00
7C00
3C00
3C78
3C78
3CF8
3DE0
3FC0
3F80
3F80
3FC0
3DE0
7DF8
7CF8
7CF8
0000
0000
0000
0000
0000
ENDCHAR

STARTCHAR l
ENCODING 108
SWIDTH 565 0
DWIDTH 15 0
BBX 15 25 0 -5
BITMAP
0000
0000
0000
0000
3F80
3F80
3F80
0780
0780
0780
0780
0780
0780
0780
0780
0780
0780
3FF0
3FF0
3FF0
0000
0000
0000
0000
0000
ENDCHAR

STARTCHAR m
ENCODING 109
SWIDTH 565 0
DWIDTH 15 0
BBX 15 25 0 -5
BITMAP
0000
0000
0000
0000
0000
0000
0000
0000
FB70
FFF8
7FF8
7F78
7B78
7B78
7B78
7B78
7B78
FB78
FB7C
FB7C
0000
0000
0000
0000
0000
ENDCHAR

STARTCHAR n
ENCODING 110
SWIDTH 565 0
DWIDTH 15 0
BBX 15 25 0 -5
BITMAP
0000
0000
0000
0000
0000
0000
0000
0000
7DC0
7FE0
3FF0
3CF0
3CF0
3CF0
3CF0
3CF0
3CF0
7CF8
7CF8
7CF8
0000
0000
0000
0000
0000
ENDCHAR

STARTCHAR o
ENCODING 111
SWIDTH 565 0
DWIDTH 15 0
BBX 15 25 0 -5
BITMAP
0000
0000
0000
0000
0000
0000
0000
0000
07C0
1FF0
3FF8
3C78
783C
783C
783C
783C
3C78
3FF8
1FF0
07C0
0000
0000
0000
0000
0000
ENDCHAR

STARTCHAR p
ENCODING 112
SWIDTH 565 0
DWIDTH 15 0
BBX 15 25 0 -5
BITMAP
0000
0000
0000
0000
0000
0000
0000
0000
FDE0
FFF0
3FF8
3C78
3C78
3C78
3C78
3C78
3C78
3FF8
3FF0
3DC0
3C00
3C00
FF00
FF00
FF00
ENDCHAR

STARTCHAR q
ENCODING 113
SWIDTH 565 0
DWIDTH 15 0
BBX 15 25 0 -5
BITMAP
0000
0000
0000
0000
0000
0000
0000
0000
0E78
3FF8
3FF8
78F0
78F0
78F0
78F0
78F0
78F0
3FF0
3FF0
0EF0
00F0
00F0
03F8
03F8
03F8
ENDCHAR

STARTCHAR r
ENCODING 114
SWIDTH 565 0
DWIDTH 15 0
BBX 15 25 0 -5
BITMAP
0000
0000
0000
0000
0000
0000
0000
0000
7E78
7FF8
0FB8
0F38
0F00
0F00
0F00
0F00
0F00
7FE0
7FE0
7FE0
0000
0000
0000
0000
0000
ENDCHAR

STARTCHAR s
ENCODING 115
SWIDTH 565 0
DWIDTH 15 0
BBX 15 25 0 -5
BITMAP
0000
0000
0000
0000
0000
0000
0000
0000
0FB0
1FF0
3FF0
3C30
3F00
1FC0
0FE0
01F0
30F0
3FF0
3FE0
37C0
0000
0000
0000
0000
0000
ENDCHAR

STARTCHAR t
ENCODING 116
SWIDTH 565 0
DWIDTH 15 0
BBX 15 25 0 -5
BITMAP
0000
0000
0000
0000
0F00
0F00
0F00
0F00
7FF0
7FF0
7FF0
0F00
0F00
0F00
0F00
0F00
0F88
0FF8
07F8
03F0
0000
0000
0000
0000
0000
ENDCHAR

STARTCHAR u
ENCODING 117
SWIDTH 565 0
DWIDTH 15 0
BBX 15 25 0 -5
BITMAP
0000
0000
0000
0000
0000
0000
0000
0000
7DF0
7DF0
3CF0
3CF0
3CF0
3CF0
3CF0
3CF0
3CF0
3FF8
3FF8
1EF8
0000
0000
0000
0000
0000
ENDCHAR

STARTCHAR v
ENCODING 118
SWIDTH 565 0
DWIDTH 15 0
BBX 15 25 0 -5
BITMAP
0000
0000
0000
0000
0000
0000
0000
0000
FCF8
FCF8
3CF0
3CF0
3CF0
1CE0
1CE0
1FE0
0FC0
0FC0
0FC0
0780
0000
0000
0000
0000
0000
ENDCHAR

STARTCHAR w
ENCODING 119
SWIDTH 565 0
DWIDTH 15 0
BBX 15 25 0 -5
BITMAP
0000
0000
0000
0000
0000
0000
0000
0000
F87C
F87C
3B70
3B70
3B70
3B70
3FF0
3FF0
3FF0
1CE0
1CE0
1CE0
0000
0000
0000
0000
0000
ENDCHAR

STARTCHAR x
ENCODING 120
SWIDTH 565 0
DWIDTH 15 0
BBX 15 25 0 -5
BITMAP
0000
0000
0000
0000
0000
0000
0000
0000
FCFC
FCFC
1CE0
1CE0
1FE0
0FC0
0FC0
0FC0
1CE0
FCFC
FCFC
FCFC
0000
0000
0000
0000
0000
ENDCHAR

STARTCHAR y
ENCODING 121
SWIDTH 565 0
DWIDTH 15 0
BBX 15 25 0 -5
BITMAP
0000
0000
0000
0000
0000
0000
0000
0000
FCFC
FCFC
3CF0
3CF0
3CE0
1CE0
1CE0
1FC0
0FC0
0F80
0F80
0780
0700
0F00
0F00
3FC0
3FC0
ENDCHAR

STARTCHAR z
ENCODING 122
SWIDTH 565 0
DWIDTH 15 0
BBX 15 25 0 -5
BITMAP
0000
0000
0000
0000
0000
0000
0000
0000
3FF0
3FF0
3FF0
31E0
33C0
0380
0700
0F30
1E30
3FF0
3FF0
3FF0
0000
0000
0000
0000
0000
ENDCHAR

STARTCHAR braceleft
ENCODING 123
SWIDTH 565 0
DWIDTH 15 0
BBX 15 25 0 -5
BITMAP
0000
0000
01F0
03F0
07F0
0780
0780
0780
0780
0780
0F00
0F00
3E00
0F00
0F00
0780
0780
0780
0780
0780
0780
07F0
03F0
01F0
0000
ENDCHAR

STARTCHAR bar
ENCODING 124
SWIDTH 565 0
DWIDTH 15 0
BBX 15 25 0 -5
BITMAP
0000
0000
0000
0780
0780
0780
0780
0780
0780
0780
0780
0780
0780
0780
0780
0780
0780
0780
0780
0780
0780
0780
0780
0780
0000
ENDCHAR

STARTCHAR braceright
ENCODING 125
SWIDTH 565 0
DWIDTH 15 0
BBX 15 25 0 -5
BITMAP
0000
0000
3E00
3F00
3F80
0780
0780
0780
0780
0780
0780
03C0
03C0
01F0
03C0
03C0
0780
0780
0780
0780
0780
3F80
3F00
3E00
0000
ENDCHAR

STARTCHAR asciitilde
ENCODING 126
SWIDTH 565 0
DWIDTH 15 0
BBX 15 25 0 -5
BITMAP
0000
0000
0000
0000
0000
0000
0000
0000
0000
0000
1C38
3F38
7FF8
77F0
71E0
0000
0000
0000
0000
0000
0000
0000
0000
0000
0000
ENDCHAR

STARTCHAR OE
ENCODING 128
SWIDTH 565 0
DWIDTH 15 0
BBX 15 25 0 -5
BITMAP
0000
0000
0000
0000
0000
1FFE
7DEE
79EE
79E0
79E0
79E4
79FC
79FC
79E4
79E0
79E0
79EE
79EE
7DEE
1FFE
0000
0000
0000
0000
0000
ENDCHAR

STARTCHAR oe
ENCODING 129
SWIDTH 565 0
DWIDTH 15 0
BBX 15 25 0 -5
BITMAP
0000
0000
0000
0000
0000
0000
0000
0000
1F3C
7DEE
79E6
79E6
79E6
79FE
79E0
79E0
79E0
79E6
7DEE
1EFC
0000
0000
0000
0000
0000
ENDCHAR

STARTCHAR Ydieresis
ENCODING 130
SWIDTH 565 0
DWIDTH 15 0
BBX 15 25 0 -5
BITMAP
0000
1860
3CF0
1860
0000
7C78
7C78
7C78
3C70
1EF0
1EE0
0FE0
0FC0
0780
0780
0780
0780
0FC0
0FC0
0FC0
0000
0000
0000
0000
0000
ENDCHAR

STARTCHAR Error
ENCODING 159
SWIDTH 565 0
DWIDTH 15 0
BBX 15 25 0 -5
BITMAP
0FF0
3FFC
7E7C
FC3C
FC3C
FC3C
FC3C
FC00
7E00
7F00
3FC0
1FC0
0FE0
07E0
07E0
07E0
07E0
0000
0000
0000
07E0
07E0
07E0
07E0
07E0
ENDCHAR

STARTCHAR space
ENCODING 160
SWIDTH 565 0
DWIDTH 15 0
BBX 15 25 0 -5
BITMAP
0000
0000
0000
0000
0000
0000
0000
0000
0000
0000
0000
0000
0000
0000
0000
0000
0000
0000
0000
0000
0000
0000
0000
0000
0000
ENDCHAR

STARTCHAR exclamdown
ENCODING 161
SWIDTH 565 0
DWIDTH 15 0
BBX 15 25 0 -5
BITMAP
0000
0000
0000
0000
0000
0000
0000
0000
0300
0FC0
0FC0
0FC0
0300
0000
0780
0780
0780
0780
0780
0780
0780
0780
0780
0780
0000
ENDCHAR

STARTCHAR cent
ENCODING 162
SWIDTH 565 0
DWIDTH 15 0
BBX 15 25 0 -5
BITMAP
0000
0000
0000
0000
0000
0300
0300
0300
1FF0
3FF0
7C70
7870
7800
7800
7800
7C70
3FF0
3FF0
0FC0
0300
0300
0300
0000
0000
0000
ENDCHAR

STARTCHAR sterling
ENCODING 163
SWIDTH 565 0
DWIDTH 15 0
BBX 15 25 0 -5
BITMAP
0000
0000
0000
0000
0000
0FF0
1FF0
1E70
1C70
1E00
0E00
7FE0
7FE0
0F00
0F00
0F00
1E1C
3FFC
3FF8
3CF0
0000
0000
0000
0000
0000
ENDCHAR

STARTCHAR EuroSign
ENCODING 164
SWIDTH 594 0
DWIDTH 15 0
BBX 15 25 0 -5
BITMAP
0000
0000
0000
0000
0000
07EC
1FFC
381C
600C
FFCC
FFC0
6000
6000
FF80
FF80
6000
300C
381C
1FF8
07E0
0000
0000
0000
0000
0000
ENDCHAR

STARTCHAR yen
ENCODING 165
SWIDTH 565 0
DWIDTH 15 0
BBX 15 25 0 -5
BITMAP
0000
0000
0000
0000
0000
FCFC
FCFC
FCFC
7870
3C60
FEFC
FFFC
0FC0
0780
FFFC
FFFC
0780
1FE0
1FE0
1FE0
0000
0000
0000
0000
0000
ENDCHAR

STARTCHAR Scaron
ENCODING 166
SWIDTH 565 0
DWIDTH 15 0
BBX 15 25 0 -5
BITMAP
0000
3CF0
1FE0
0FC0
0000
0F30
1FF0
3FF0
3CF0
3C30
3E00
3F80
1FE0
07F0
01F0
30F0
38F0
3FF0
3FE0
37C0
0000
0000
0000
0000
0000
ENDCHAR

STARTCHAR section
ENCODING 167
SWIDTH 565 0
DWIDTH 15 0
BBX 15 25 0 -5
BITMAP
0000
0000
0000
0000
0000
03F8
0FF8
1FF8
3E18
7F00
7780
73C0
79E0
3CF0
1E78
0F3C
079C
03F8
01F0
30F0
3FF0
3FE0
3FC0
0000
0000
ENDCHAR

STARTCHAR scaron
ENCODING 168
SWIDTH 565 0
DWIDTH 15 0
BBX 15 25 0 -5
BITMAP
0000
0000
0000
0000
3CF0
1FE0
0FC0
0000
0FB0
1FF0
3FF0
3C30
3F00
1FC0
0FE0
01F0
30F0
3FF0
3FE0
37C0
0000
0000
0000
0000
0000
ENDCHAR

STARTCHAR copyright
ENCODING 169
SWIDTH 565 0
DWIDTH 15 0
BBX 15 25 0 -5
BITMAP
0000
0000
0000
0000
1FE0
7FF8
7038
7038
E79C
EF9C
EE1C
EE1C
EE1C
EE1C
EF9C
E79C
7038
7038
7FF8
1FE0
0000
0000
0000
0000
0000
ENDCHAR

STARTCHAR ordfeminine
ENCODING 170
SWIDTH 565 0
DWIDTH 15 0
BBX 15 25 0 -5
BITMAP
0000
0000
1F80
1FC0
3FE0
00E0
1FE0
1FE0
3CE0
3CE0
3CE0
3FF0
1F70
0000
3FF0
3FF0
3FF0
0000
0000
0000
0000
0000
0000
0000
0000
ENDCHAR

STARTCHAR guillemotleft
ENCODING 171
SWIDTH 565 0
DWIDTH 15 0
BBX 15 25 0 -5
BITMAP
0000
0000
0000
0000
0000
0000
0000
0000
0000
0000
0000
0618
0E38
1E78
3CF0
79E0
3CF0
1E78
0E38
0618
0000
0000
0000
0000
0000
ENDCHAR

STARTCHAR logicalnot
ENCODING 172
SWIDTH 565 0
DWIDTH 15 0
BBX 15 25 0 -5
BITMAP
0000
0000
0000
0000
0000
0000
0000
0000
0000
7FF0
7FF0
7FF0
0070
0070
0070
0070
0070
0000
0000
0000
0000
0000
0000
0000
0000
ENDCHAR

STARTCHAR hyphen
ENCODING 173
SWIDTH 565 0
DWIDTH 15 0
BBX 15 25 0 -5
BITMAP
0000
0000
0000
0000
0000
0000
0000
0000
0000
0000
0000
0000
3FE0
3FE0
3FE0
0000
0000
0000
0000
0000
0000
0000
0000
0000
0000
ENDCHAR

STARTCHAR registered
ENCODING 174
SWIDTH 565 0
DWIDTH 15 0
BBX 15 25 0 -5
BITMAP
0000
0000
0000
0000
0FC0
7FF8
7038
E01C
EF9C
ECDC
ECDC
EDDC
EF9C
ED9C
ECDC
ECFC
E01C
7038
7FF8
1FE0
0000
0000
0000
0000
0000
ENDCHAR

STARTCHAR macron
ENCODING 175
SWIDTH 565 0
DWIDTH 15 0
BBX 15 25 0 -5
BITMAP
0000
0000
1FF0
1FF0
1FF0
0000
0000
0000
0000
0000
0000
0000
0000
0000
0000
0000
0000
0000
0000
0000
0000
0000
0000
0000
0000
ENDCHAR

STARTCHAR degree
ENCODING 176
SWIDTH 565 0
DWIDTH 15 0
BBX 15 25 0 -5
BITMAP
0000
0000
0F80
1FC0
38E0
38E0
38E0
38E0
1FC0
0F80
0000
0000
0000
0000
0000
0000
0000
0000
0000
0000
0000
0000
0000
0000
0000
ENDCHAR

STARTCHAR plusminus
ENCODING 177
SWIDTH 565 0
DWIDTH 15 0
BBX 15 25 0 -5
BITMAP
0000
0000
0000
0000
0000
0700
0700
0700
0700
7FF0
7FF0
7FF0
0700
0700
0700
0700
0000
7FF0
7FF0
7FF0
0000
0000
0000
0000
0000
ENDCHAR

STARTCHAR twosuperior
ENCODING 178
SWIDTH 565 0
DWIDTH 15 0
BBX 15 25 0 -5
BITMAP
0000
0000
07E0
07E0
0FF0
00F0
01E0
01E0
0780
0FF0
0FF0
0FF0
0000
0000
0000
0000
0000
0000
0000
0000
0000
0000
0000
0000
0000
ENDCHAR

STARTCHAR threesuperior
ENCODING 179
SWIDTH 565 0
DWIDTH 15 0
BBX 15 25 0 -5
BITMAP
0000
0000
07E0
07E0
0FF0
00F0
01E0
01E0
00F0
0FF0
07E0
07E0
0000
0000
0000
0000
0000
0000
0000
0000
0000
0000
0000
0000
0000
ENDCHAR

STARTCHAR Zcaron
ENCODING 180
SWIDTH 565 0
DWIDTH 15 0
BBX 15 25 0 -5
BITMAP
0000
3CF0
1FE0
0FC0
0000
3FF0
3FF0
3FF0
31E0
31E0
03C0
03C0
0780
0780
0F00
1F30
1E30
3FF0
3FF0
3FF0
0000
0000
0000
0000
0000
ENDCHAR

STARTCHAR mu
ENCODING 181
SWIDTH 565 0
DWIDTH 15 0
BBX 15 25 0 -5
BITMAP
0000
0000
0000
0000
0000
0000
0000
0000
3C78
3C78
3C78
3C78
3C78
3CF0
78F0
78F0
79F0
7FF8
FFF8
FE78
F000
F000
F000
F000
0000
ENDCHAR

STARTCHAR paragraph
ENCODING 182
SWIDTH 565 0
DWIDTH 15 0
BBX 15 25 0 -5
BITMAP
0000
0000
0000
0000
0000
0FFC
1FFC
3F30
7F30
7F30
7F30
7F30
3F30
1F30
0F30
0330
0330
0330
0330
0330
0F3C
0F3C
0F3C
0000
0000
ENDCHAR

STARTCHAR periodcentered
ENCODING 183
SWIDTH 565 0
DWIDTH 15 0
BBX 15 25 0 -5
BITMAP
0000
0000
0000
0000
0000
0000
0000
0000
0000
0000
0000
0380
07C0
07C0
07C0
0380
0000
0000
0000
0000
0000
0000
0000
0000
0000
ENDCHAR

STARTCHAR zcaron
ENCODING 184
SWIDTH 565 0
DWIDTH 15 0
BBX 15 25 0 -5
BITMAP
0000
0000
0000
0000
3CF0
1FE0
0FC0
0000
3FF0
3FF0
3FF0
31E0
33C0
0380
0700
0F30
1E30
3FF0
3FF0
3FF0
0000
0000
0000
0000
0000
ENDCHAR

STARTCHAR onesuperior
ENCODING 185
SWIDTH 565 0
DWIDTH 15 0
BBX 15 25 0 -5
BITMAP
0000
0000
0380
0F80
1F80
1B80
0380
0380
0380
0FE0
0FE0
0FE0
0000
0000
0000
0000
0000
0000
0000
0000
0000
0000
0000
0000
0000
ENDCHAR

STARTCHAR ordmasculine
ENCODING 186
SWIDTH 565 0
DWIDTH 15 0
BBX 15 25 0 -5
BITMAP
0000
0000
0FC0
1FE0
1FE0
3CF0
3CF0
3CF0
3CF0
3CF0
1FF0
1FE0
0FC0
0000
3FF0
3FF0
3FF0
0000
0000
0000
0000
0000
0000
0000
0000
ENDCHAR

STARTCHAR guillemotright
ENCODING 187
SWIDTH 565 0
DWIDTH 15 0
BBX 15 25 0 -5
BITMAP
0000
0000
0000
0000
0000
0000
0000
0000
0000
0000
0000
6180
71C0
79E0
3CF0
1E78
3CF0
79E0
71C0
6180
0000
0000
0000
0000
0000
ENDCHAR

STARTCHAR Ligature_OE
ENCODING 188
SWIDTH 565 0
DWIDTH 15 0
BBX 15 25 0 -5
BITMAP
0000
0000
0000
0000
0000
1FFE
7DEE
79EE
79E0
79E0
79E4
79FC
79FC
79E4
79E0
79E0
79EE
79EE
7DEE
1FFE
0000
0000
0000
0000
0000
ENDCHAR

STARTCHAR Ligature_oe
ENCODING 189
SWIDTH 565 0
DWIDTH 15 0
BBX 15 25 0 -5
BITMAP
0000
0000
0000
0000
0000
0000
0000
0000
1F3C
7DEE
79E6
79E6
79E6
79FE
79E0
79E0
79E0
79E6
7DEE
1EFC
0000
0000
0000
0000
0000
ENDCHAR

STARTCHAR Ydiaeresis
ENCODING 190
SWIDTH 565 0
DWIDTH 15 0
BBX 15 25 0 -5
BITMAP
0000
1860
3CF0
1860
0000
7C78
7C78
7C78
3C70
1EF0
1EE0
0FE0
0FC0
0780
0780
0780
0780
0FC0
0FC0
0FC0
0000
0000
0000
0000
0000
ENDCHAR

STARTCHAR questiondown
ENCODING 191
SWIDTH 565 0
DWIDTH 15 0
BBX 15 25 0 -5
BITMAP
0000
0000
0000
0000
0000
0000
0000
0000
0180
07E0
07E0
07E0
0180
0000
03C0
03C0
0FC0
1F00
1F00
3C00
3CE0
3FE0
3FE0
0FC0
0000
ENDCHAR

STARTCHAR Agrave
ENCODING 192
SWIDTH 565 0
DWIDTH 15 0
BBX 15 25 0 -5
BITMAP
0000
0F00
0780
03C0
0000
0FE0
0FE0
0FE0
0FE0
1FF0
1CF0
1CF0
1CF0
3FF8
3FF8
3FF8
7078
FCFC
FCFC
FCFC
0000
0000
0000
0000
0000
ENDCHAR

STARTCHAR Aacute
ENCODING 193
SWIDTH 565 0
DWIDTH 15 0
BBX 15 25 0 -5
BITMAP
0000
00F0
01E0
03C0
0000
0FE0
0FE0
0FE0
0FE0
1FF0
1CF0
1CF0
1CF0
3FF8
3FF8
3FF8
7078
FCFC
FCFC
FCFC
0000
0000
0000
0000
0000
ENDCHAR

STARTCHAR Acircumflex
ENCODING 194
SWIDTH 565 0
DWIDTH 15 0
BBX 15 25 0 -5
BITMAP
0000
07E0
0FF0
1E78
0000
0FE0
0FE0
0FE0
0FE0
1FF0
1CF0
1CF0
1CF0
3FF8
3FF8
3FF8
7078
FCFC
FCFC
FCFC
0000
0000
0000
0000
0000
ENDCHAR

STARTCHAR Atilde
ENCODING 195
SWIDTH 565 0
DWIDTH 15 0
BBX 15 25 0 -5
BITMAP
0000
0F30
1FF0
19E0
0000
0FE0
0FE0
0FE0
0FE0
1FF0
1CF0
1CF0
1CF0
3FF8
3FF8
3FF8
7078
FCFC
FCFC
FCFC
0000
0000
0000
0000
0000
ENDCHAR

STARTCHAR Adieresis
ENCODING 196
SWIDTH 565 0
DWIDTH 15 0
BBX 15 25 0 -5
BITMAP
0000
0C30
1E78
0C30
0000
0FE0
0FE0
0FE0
0FE0
1FF0
1CF0
1CF0
1CF0
3FF8
3FF8
3FF8
7078
FCFC
FCFC
FCFC
0000
0000
0000
0000
0000
ENDCHAR

STARTCHAR Aring
ENCODING 197
SWIDTH 565 0
DWIDTH 15 0
BBX 15 25 0 -5
BITMAP
0000
07E0
0E70
07E0
0000
0FE0
0FE0
0FE0
0FE0
1FF0
1CF0
1CF0
1CF0
3FF8
3FF8
3FF8
7078
FCFC
FCFC
FCFC
0000
0000
0000
0000
0000
ENDCHAR

STARTCHAR AE
ENCODING 198
SWIDTH 565 0
DWIDTH 15 0
BBX 15 25 0 -5
BITMAP
0000
0000
0000
0000
0000
1FF8
1FF8
1FF8
3BC0
3BC0
33F0
73F0
73F0
7FC0
7FC0
FFC0
F3C0
F3F8
F3F8
F3F8
0000
0000
0000
0000
0000
ENDCHAR

STARTCHAR Ccedilla
ENCODING 199
SWIDTH 565 0
DWIDTH 15 0
BBX 15 25 0 -5
BITMAP
0000
0000
0000
0000
0000
0798
1FF8
1FF8
3C78
7838
7800
7800
7800
7800
7800
7800
3C38
3FF8
1FF8
07E0
0180
01E0
0070
07F0
07C0
ENDCHAR

STARTCHAR Egrave
ENCODING 200
SWIDTH 565 0
DWIDTH 15 0
BBX 15 25 0 -5
BITMAP
0000
0F00
0780
03C0
0000
7FF8
7FF8
7FF8
1E38
1E00
1E00
1FE0
1FE0
1FE0
1E00
1E00
1E38
7FF8
7FF8
7FF8
0000
0000
0000
0000
0000
ENDCHAR

STARTCHAR Eacute
ENCODING 201
SWIDTH 565 0
DWIDTH 15 0
BBX 15 25 0 -5
BITMAP
0000
00F0
01E0
03C0
0000
7FF8
7FF8
7FF8
1E38
1E00
1E00
1FE0
1FE0
1FE0
1E00
1E00
1E38
7FF8
7FF8
7FF8
0000
0000
0000
0000
0000
ENDCHAR

STARTCHAR Ecircumflex
ENCODING 202
SWIDTH 565 0
DWIDTH 15 0
BBX 15 25 0 -5
BITMAP
0000
0FC0
1FE0
3CF0
0000
7FF8
7FF8
7FF8
1E38
1E00
1E00
1FE0
1FE0
1FE0
1E00
1E00
1E38
7FF8
7FF8
7FF8
0000
0000
0000
0000
0000
ENDCHAR

STARTCHAR Edieresis
ENCODING 203
SWIDTH 565 0
DWIDTH 15 0
BBX 15 25 0 -5
BITMAP
0000
1860
3CF0
1860
0000
7FF8
7FF8
7FF8
1E38
1E00
1E00
1FE0
1FE0
1FE0
1E00
1E00
1E38
7FF8
7FF8
7FF8
0000
0000
0000
0000
0000
ENDCHAR

STARTCHAR Igrave
ENCODING 204
SWIDTH 565 0
DWIDTH 15 0
BBX 15 25 0 -5
BITMAP
0000
0F00
0780
03C0
0000
7FF8
7FF8
7FF8
0780
0780
0780
0780
0780
0780
0780
0780
0780
7FF8
7FF8
7FF8
0000
0000
0000
0000
0000
ENDCHAR

STARTCHAR Iacute
ENCODING 205
SWIDTH 565 0
DWIDTH 15 0
BBX 15 25 0 -5
BITMAP
0000
01E0
03C0
0780
0000
7FF8
7FF8
7FF8
0780
0780
0780
0780
0780
0780
0780
0780
0780
7FF8
7FF8
7FF8
0000
0000
0000
0000
0000
ENDCHAR

STARTCHAR Icircumflex
ENCODING 206
SWIDTH 565 0
DWIDTH 15 0
BBX 15 25 0 -5
BITMAP
0000
0FC0
1FE0
3CF0
0000
7FF8
7FF8
7FF8
0780
0780
0780
0780
0780
0780
0780
0780
0780
7FF8
7FF8
7FF8
0000
0000
0000
0000
0000
ENDCHAR

STARTCHAR Idieresis
ENCODING 207
SWIDTH 565 0
DWIDTH 15 0
BBX 15 25 0 -5
BITMAP
0000
1860
3CF0
1860
0000
7FF8
7FF8
7FF8
0780
0780
0780
0780
0780
0780
0780
0780
0780
7FF8
7FF8
7FF8
0000
0000
0000
0000
0000
ENDCHAR

STARTCHAR Eth
ENCODING 208
SWIDTH 565 0
DWIDTH 15 0
BBX 15 25 0 -5
BITMAP
0000
0000
0000
0000
0000
FFE0
FFF0
FFF8
3CF8
3C78
3C78
7E78
7E78
7E78
3C78
3C78
3CF8
FFF8
FFF0
FFE0
0000
0000
0000
0000
0000
ENDCHAR

STARTCHAR Ntilde
ENCODING 209
SWIDTH 565 0
DWIDTH 15 0
BBX 15 25 0 -5
BITMAP
0000
0F30
1FF0
19E0
0000
3C78
3C78
3C78
1E70
1E70
1F70
1FF0
1FF0
1FF0
1DF0
1DF0
1CF0
3CF0
3C70
3C70
0000
0000
0000
0000
0000
ENDCHAR

STARTCHAR Ograve
ENCODING 210
SWIDTH 565 0
DWIDTH 15 0
BBX 15 25 0 -5
BITMAP
0000
0F00
0780
03C0
0000
0FC0
3FF0
3FF0
7CF8
7878
7878
7878
7878
7878
7878
7878
7CF8
3FF0
3FF0
0FC0
0000
0000
0000
0000
0000
ENDCHAR

STARTCHAR Oacute
ENCODING 211
SWIDTH 565 0
DWIDTH 15 0
BBX 15 25 0 -5
BITMAP
0000
01E0
03C0
0780
0000
0FC0
3FF0
3FF0
7CF8
7878
7878
7878
7878
7878
7878
7878
7CF8
3FF0
3FF0
0FC0
0000
0000
0000
0000
0000
ENDCHAR

STARTCHAR Ocircumflex
ENCODING 212
SWIDTH 565 0
DWIDTH 15 0
BBX 15 25 0 -5
BITMAP
0000
0FC0
1FE0
3CF0
0000
0FC0
3FF0
3FF0
7CF8
7878
7878
7878
7878
7878
7878
7878
7CF8
3FF0
3FF0
0FC0
0000
0000
0000
0000
0000
ENDCHAR

STARTCHAR Otilde
ENCODING 213
SWIDTH 565 0
DWIDTH 15 0
BBX 15 25 0 -5
BITMAP
0000
0F30
1FF0
19E0
0000
0FC0
3FF0
3FF0
7CF8
7878
7878
7878
7878
7878
7878
7878
7CF8
3FF0
3FF0
0FC0
0000
0000
0000
0000
0000
ENDCHAR

STARTCHAR Odieresis
ENCODING 214
SWIDTH 565 0
DWIDTH 15 0
BBX 15 25 0 -5
BITMAP
0000
1860
3CF0
1860
0000
0FC0
3FF0
3FF0
7CF8
7878
7878
7878
7878
7878
7878
7878
7CF8
3FF0
3FF0
0FC0
0000
0000
0000
0000
0000
ENDCHAR

STARTCHAR multiply
ENCODING 215
SWIDTH 565 0
DWIDTH 15 0
BBX 15 25 0 -5
BITMAP
0000
0000
0000
0000
0000
0000
0000
0000
3830
3C70
3EF0
1FE0
0FC0
0780
0FC0
1FE0
3DF0
38F0
3070
0000
0000
0000
0000
0000
0000
ENDCHAR

STARTCHAR Oslash
ENCODING 216
SWIDTH 565 0
DWIDTH 15 0
BBX 15 25 0 -5
BITMAP
0000
0000
0000
0000
0018
0FD8
3FF8
3FF0
7CF8
78F8
79F8
79F8
7B78
7E78
7E78
7C78
7CF8
3FF0
7FF0
6FC0
6000
0000
0000
0000
0000
ENDCHAR

STARTCHAR Ugrave
ENCODING 217
SWIDTH 565 0
DWIDTH 15 0
BBX 15 25 0 -5
BITMAP
0000
0F00
0780
03C0
0000
7CF8
7CF8
7CF8
3CF0
3CF0
3CF0
3CF0
3CF0
3CF0
3CF0
3CF0
3CF0
3FF0
1FE0
0FC0
0000
0000
0000
0000
0000
ENDCHAR

STARTCHAR Uacute
ENCODING 218
SWIDTH 565 0
DWIDTH 15 0
BBX 15 25 0 -5
BITMAP
0000
01E0
03C0
0780
0000
7CF8
7CF8
7CF8
3CF0
3CF0
3CF0
3CF0
3CF0
3CF0
3CF0
3CF0
3CF0
3FF0
1FE0
0FC0
0000
0000
0000
0000
0000
ENDCHAR

STARTCHAR Ucircumflex
ENCODING 219
SWIDTH 565 0
DWIDTH 15 0
BBX 15 25 0 -5
BITMAP
0000
0FC0
1FE0
3CF0
0000
7CF8
7CF8
7CF8
3CF0
3CF0
3CF0
3CF0
3CF0
3CF0
3CF0
3CF0
3CF0
3FF0
1FE0
0FC0
0000
0000
0000
0000
0000
ENDCHAR

STARTCHAR Udieresis
ENCODING 220
SWIDTH 565 0
DWIDTH 15 0
BBX 15 25 0 -5
BITMAP
0000
1860
3CF0
1860
0000
7CF8
7CF8
7CF8
3CF0
3CF0
3CF0
3CF0
3CF0
3CF0
3CF0
3CF0
3CF0
3FF0
1FE0
0FC0
0000
0000
0000
0000
0000
ENDCHAR

STARTCHAR Yacute
ENCODING 221
SWIDTH 565 0
DWIDTH 15 0
BBX 15 25 0 -5
BITMAP
0000
01E0
03C0
0780
0000
7C78
7C78
7C78
3C70
1EF0
1EE0
0FE0
0FC0
0780
0780
0780
0780
1FE0
1FE0
1FE0
0000
0000
0000
0000
0000
ENDCHAR

STARTCHAR Thorn
ENCODING 222
SWIDTH 565 0
DWIDTH 15 0
BBX 15 25 0 -5
BITMAP
0000
0000
0000
0000
0000
7E00
7E00
7E00
1FE0
1FF0
1E70
1E70
1E70
1E70
1FF0
1FE0
1E00
7F00
7F00
7F00
0000
0000
0000
0000
0000
ENDCHAR

STARTCHAR germandbls
ENCODING 223
SWIDTH 565 0
DWIDTH 15 0
BBX 15 25 0 -5
BITMAP
0000
0000
0000
0000
1FC0
3FE0
3C70
3C70
3C70
3DF0
3DE0
3DE0
3C70
3C70
3C70
3C70
3C70
FDF0
FDF0
FDE0
0000
0000
0000
0000
0000
ENDCHAR

STARTCHAR agrave
ENCODING 224
SWIDTH 565 0
DWIDTH 15 0
BBX 15 25 0 -5
BITMAP
0000
0000
0000
0F00
0780
03C0
0000
0000
1FC0
3FE0
38F0
0070
0FF0
3FF0
7FF0
78F0
78F0
7FF8
7FF8
1F78
0000
0000
0000
0000
0000
ENDCHAR

STARTCHAR aacute
ENCODING 225
SWIDTH 565 0
DWIDTH 15 0
BBX 15 25 0 -5
BITMAP
0000
0000
0000
01E0
03C0
0780
0000
0000
1FC0
3FE0
38F0
0070
0FF0
3FF0
7FF0
78F0
78F0
7FF8
7FF8
1F78
0000
0000
0000
0000
0000
ENDCHAR

STARTCHAR acircumflex
ENCODING 226
SWIDTH 565 0
DWIDTH 15 0
BBX 15 25 0 -5
BITMAP
0000
0000
0000
0FC0
1FE0
3CF0
0000
0000
1FC0
3FE0
38F0
0070
0FF0
3FF0
7FF0
78F0
78F0
7FF8
7FF8
1F78
0000
0000
0000
0000
0000
ENDCHAR

STARTCHAR atilde
ENCODING 227
SWIDTH 565 0
DWIDTH 15 0
BBX 15 25 0 -5
BITMAP
0000
0000
0000
0F30
1FF0
19E0
0000
0000
1FC0
3FE0
38F0
0070
0FF0
3FF0
7FF0
78F0
78F0
7FF8
7FF8
1F78
0000
0000
0000
0000
0000
ENDCHAR

STARTCHAR adieresis
ENCODING 228
SWIDTH 565 0
DWIDTH 15 0
BBX 15 25 0 -5
BITMAP
0000
0000
0000
1860
3CF0
1860
0000
0000
1FC0
3FE0
38F0
0070
0FF0
3FF0
7FF0
78F0
78F0
7FF8
7FF8
1F78
0000
0000
0000
0000
0000
ENDCHAR

STARTCHAR aring
ENCODING 229
SWIDTH 565 0
DWIDTH 15 0
BBX 15 25 0 -5
BITMAP
0000
0FC0
1FE0
1CE0
1CE0
1FE0
0FC0
0000
1FC0
3FE0
38F0
0070
0FF0
3FF0
7FF0
78F0
78F0
7FF8
7FF8
1F78
0000
0000
0000
0000
0000
ENDCHAR

STARTCHAR ae
ENCODING 230
SWIDTH 565 0
DWIDTH 15 0
BBX 15 25 0 -5
BITMAP
0000
0000
0000
0000
0000
0000
0000
0000
3EF8
7FF8
73CC
03CC
3FFC
FFFC
FFFC
E3C0
E3CC
FFFC
FFFC
3CF8
0000
0000
0000
0000
0000
ENDCHAR

STARTCHAR ccedilla
ENCODING 231
SWIDTH 565 0
DWIDTH 15 0
BBX 15 25 0 -5
BITMAP
0000
0000
0000
0000
0000
0000
0000
0000
07D8
1FF8
3E78
3C38
7838
7800
7800
7800
3C38
3E78
1FF0
07E0
0180
01E0
0070
07F0
07E0
ENDCHAR

STARTCHAR egrave
ENCODING 232
SWIDTH 565 0
DWIDTH 15 0
BBX 15 25 0 -5
BITMAP
0000
0000
0000
1E00
0F00
0780
0000
0000
0F80
3FE0
38E0
78F0
78F0
7FF0
7FE0
7800
7C70
3FF0
3FF0
0FC0
0000
0000
0000
0000
0000
ENDCHAR

STARTCHAR eacute
ENCODING 233
SWIDTH 565 0
DWIDTH 15 0
BBX 15 25 0 -5
BITMAP
0000
0000
0000
01E0
03C0
0780
0000
0000
0F80
3FE0
38E0
78F0
78F0
7FF0
7FE0
7800
7C70
3FF0
3FF0
0FC0
0000
0000
0000
0000
0000
ENDCHAR

STARTCHAR ecircumflex
ENCODING 234
SWIDTH 565 0
DWIDTH 15 0
BBX 15 25 0 -5
BITMAP
0000
0000
0000
0FC0
1FE0
3CF0
0000
0000
0F80
3FE0
38E0
78F0
78F0
7FF0
7FE0
7800
7C70
3FF0
3FF0
0FC0
0000
0000
0000
0000
0000
ENDCHAR

STARTCHAR edieresis
ENCODING 235
SWIDTH 565 0
DWIDTH 15 0
BBX 15 25 0 -5
BITMAP
0000
0000
0000
1860
3CF0
1860
0000
0000
0F80
3FE0
38E0
78F0
78F0
7FF0
7FE0
7800
7C70
3FF0
3FF0
0FC0
0000
0000
0000
0000
0000
ENDCHAR

STARTCHAR igrave
ENCODING 236
SWIDTH 565 0
DWIDTH 15 0
BBX 15 25 0 -5
BITMAP
0000
0000
0000
1E00
0F00
0780
0000
0000
3F80
3F80
0780
0780
0780
0780
0780
0780
0780
3FF0
3FF0
3FF0
0000
0000
0000
0000
0000
ENDCHAR

STARTCHAR iacute
ENCODING 237
SWIDTH 565 0
DWIDTH 15 0
BBX 15 25 0 -5
BITMAP
0000
0000
0000
01E0
03C0
0780
0000
0000
3F80
3F80
0780
0780
0780
0780
0780
0780
0780
3FF0
3FF0
3FF0
0000
0000
0000
0000
0000
ENDCHAR

STARTCHAR icircumflex
ENCODING 238
SWIDTH 565 0
DWIDTH 15 0
BBX 15 25 0 -5
BITMAP
0000
0000
0000
0FC0
1FE0
3CF0
0000
0000
3F80
3F80
0780
0780
0780
0780
0780
0780
0780
3FF0
3FF0
3FF0
0000
0000
0000
0000
0000
ENDCHAR

STARTCHAR idieresis
ENCODING 239
SWIDTH 565 0
DWIDTH 15 0
BBX 15 25 0 -5
BITMAP
0000
0000
0000
1860
3CF0
1860
0000
0000
3F80
3F80
0780
0780
0780
0780
0780
0780
0780
3FF0
3FF0
3FF0
0000
0000
0000
0000
0000
ENDCHAR

STARTCHAR eth
ENCODING 240
SWIDTH 565 0
DWIDTH 15 0
BBX 15 25 0 -5
BITMAP
0000
0000
0000
0F70
07E0
07E0
0EF0
0070
07F8
1FF8
3FFC
3C7C
783C
783C
783C
783C
3C78
3FF8
1FF0
07C0
0000
0000
0000
0000
0000
ENDCHAR

STARTCHAR ntilde
ENCODING 241
SWIDTH 565 0
DWIDTH 15 0
BBX 15 25 0 -5
BITMAP
0000
0000
0000
1E60
3FE0
33C0
0000
0000
7DC0
7FE0
3FF0
3CF0
3CF0
3CF0
3CF0
3CF0
3CF0
7CF8
7CF8
7CF8
0000
0000
0000
0000
0000
ENDCHAR

STARTCHAR ograve
ENCODING 242
SWIDTH 565 0
DWIDTH 15 0
BBX 15 25 0 -5
BITMAP
0000
0000
0000
0F00
0780
03C0
0000
0000
07C0
1FF0
3FF8
3C78
783C
783C
783C
783C
3C78
3FF8
1FF0
07C0
0000
0000
0000
0000
0000
ENDCHAR

STARTCHAR oacute
ENCODING 243
SWIDTH 565 0
DWIDTH 15 0
BBX 15 25 0 -5
BITMAP
0000
0000
0000
00F0
01E0
03C0
0000
0000
07C0
1FF0
3FF8
3C78
783C
783C
783C
783C
3C78
3FF8
1FF0
07C0
0000
0000
0000
0000
0000
ENDCHAR

STARTCHAR ocircumflex
ENCODING 244
SWIDTH 565 0
DWIDTH 15 0
BBX 15 25 0 -5
BITMAP
0000
0000
0000
07E0
0FF0
1E78
0000
0000
07C0
1FF0
3FF8
3C78
783C
783C
783C
783C
3C78
3FF8
1FF0
07C0
0000
0000
0000
0000
0000
ENDCHAR

STARTCHAR otilde
ENCODING 245
SWIDTH 565 0
DWIDTH 15 0
BBX 15 25 0 -5
BITMAP
0000
0000
0000
0F30
1FF0
19E0
0000
0000
07C0
1FF0
3FF8
3C78
783C
783C
783C
783C
3C78
3FF8
1FF0
07C0
0000
0000
0000
0000
0000
ENDCHAR

STARTCHAR odieresis
ENCODING 246
SWIDTH 565 0
DWIDTH 15 0
BBX 15 25 0 -5
BITMAP
0000
0000
0000
0C30
1E78
0C30
0000
0000
07C0
1FF0
3FF8
3C78
783C
783C
783C
783C
3C78
3FF8
1FF0
07C0
0000
0000
0000
0000
0000
ENDCHAR

STARTCHAR divide
ENCODING 247
SWIDTH 565 0
DWIDTH 15 0
BBX 15 25 0 -5
BITMAP
0000
0000
0000
0000
0000
0000
0000
0380
07C0
07C0
0380
0000
3FF8
3FF8
3FF8
0000
0380
07C0
07C0
0380
0000
0000
0000
0000
0000
ENDCHAR

STARTCHAR oslash
ENCODING 248
SWIDTH 565 0
DWIDTH 15 0
BBX 15 25 0 -5
BITMAP
0000
0000
0000
0000
0000
0000
0000
0018
07D8
1FF0
3FF8
3CF8
78FC
79BC
7B3C
7B3C
3E78
3FF8
1FF0
37C0
3000
0000
0000
0000
0000
ENDCHAR

STARTCHAR ugrave
ENCODING 249
SWIDTH 565 0
DWIDTH 15 0
BBX 15 25 0 -5
BITMAP
0000
0000
0000
1E00
0F00
0780
0000
0000
7DF0
7DF0
3CF0
3CF0
3CF0
3CF0
3CF0
3CF0
3CF0
3FF8
3FF8
1EF8
0000
0000
0000
0000
0000
ENDCHAR

STARTCHAR uacute
ENCODING 250
SWIDTH 565 0
DWIDTH 15 0
BBX 15 25 0 -5
BITMAP
0000
0000
0000
03C0
0780
0F00
0000
0000
7DF0
7DF0
3CF0
3CF0
3CF0
3CF0
3CF0
3CF0
3CF0
3FF8
3FF8
1EF8
0000
0000
0000
0000
0000
ENDCHAR

STARTCHAR ucircumflex
ENCODING 251
SWIDTH 565 0
DWIDTH 15 0
BBX 15 25 0 -5
BITMAP
0000
0000
0000
0FC0
1FE0
3CF0
0000
0000
7DF0
7DF0
3CF0
3CF0
3CF0
3CF0
3CF0
3CF0
3CF0
3FF8
3FF8
1EF8
0000
0000
0000
0000
0000
ENDCHAR

STARTCHAR udieresis
ENCODING 252
SWIDTH 565 0
DWIDTH 15 0
BBX 15 25 0 -5
BITMAP
0000
0000
0000
1860
3CF0
1860
0000
0000
7DF0
7DF0
3CF0
3CF0
3CF0
3CF0
3CF0
3CF0
3CF0
3FF8
3FF8
1EF8
0000
0000
0000
0000
0000
ENDCHAR

STARTCHAR yacute
ENCODING 253
SWIDTH 565 0
DWIDTH 15 0
BBX 15 25 0 -5
BITMAP
0000
0000
0000
01E0
03C0
0780
0000
0000
FCFC
FCFC
3CF0
3CF0
3CE0
1CE0
1CE0
1FC0
0FC0
0F80
0F80
0780
0700
0F00
0F00
3FC0
3FC0
ENDCHAR

STARTCHAR thorn
ENCODING 254
SWIDTH 565 0
DWIDTH 15 0
BBX 15 25 0 -5
BITMAP
0000
0000
0000
0000
FE00
FE00
3C00
3C00
3DE0
3FF0
3FF8
3C78
3C78
3C78
3C78
3C78
3C78
3FF8
3FF0
3DC0
3C00
3C00
3C00
FF00
FF00
ENDCHAR

STARTCHAR ydieresis
ENCODING 255
SWIDTH 565 0
DWIDTH 15 0
BBX 15 25 0 -5
BITMAP
0000
0000
0000
1860
3CF0
1860
0000
0000
FCFC
FCFC
3CF0
3CF0
3CE0
1CE0
1CE0
1FC0
0FC0
0F80
0F80
0780
0700
0F00
0F00
3FC0
3FC0
ENDCHAR
ENDFONT
